<?xml version="1.0" encoding="utf-8"?>
<svg version="1.1" xmlns:xlink="http://www.w3.org/1999/xlink" width="30px" height="30px" xmlns="http://www.w3.org/2000/svg">
  <g transform="matrix(1 0 0 1 -43 0 )">
    <path d="M 58 0  C 66.4 0  73 6.6  73 15  C 73 23.4  66.4 30  58 30  C 49.6 30  43 23.4  43 15  C 43 6.6  49.6 0  58 0  Z " fill-rule="nonzero" fill="#aaaaaa" stroke="none" />
    <path d="M 58 0.5  C 66.12 0.5  72.5 6.88  72.5 15  C 72.5 23.12  66.12 29.5  58 29.5  C 49.88 29.5  43.5 23.12  43.5 15  C 43.5 6.88  49.88 0.5  58 0.5  Z " stroke-width="1" stroke="#797979" fill="none" />
  </g>
</svg>